<?xml version="1.0" encoding="UTF-8" standalone="no"?>
<svg
   xmlns:dc="http://purl.org/dc/elements/1.1/"
   xmlns:cc="http://creativecommons.org/ns#"
   xmlns:rdf="http://www.w3.org/1999/02/22-rdf-syntax-ns#"
   xmlns:svg="http://www.w3.org/2000/svg"
   xmlns="http://www.w3.org/2000/svg"
   xmlns:sodipodi="http://sodipodi.sourceforge.net/DTD/sodipodi-0.dtd"
   xmlns:inkscape="http://www.inkscape.org/namespaces/inkscape"
   width="650"
   height="650"
   viewBox="-2015 -2000 4030 4030"
   version="1.1"
   id="svg849"
   sodipodi:docname="Maple_Leaf_White.svg"
   inkscape:version="1.0 (4035a4fb49, 2020-05-01)">
  <metadata
     id="metadata855">
    <rdf:RDF>
      <cc:Work
         rdf:about="">
        <dc:format>image/svg+xml</dc:format>
        <dc:type
           rdf:resource="http://purl.org/dc/dcmitype/StillImage" />
      </cc:Work>
    </rdf:RDF>
  </metadata>
  <defs
     id="defs853" />
  <sodipodi:namedview
     inkscape:document-rotation="0"
     pagecolor="#ffffff"
     bordercolor="#666666"
     borderopacity="1"
     objecttolerance="10"
     gridtolerance="10"
     guidetolerance="10"
     inkscape:pageopacity="0"
     inkscape:pageshadow="2"
     inkscape:window-width="1920"
     inkscape:window-height="1009"
     id="namedview851"
     showgrid="false"
     inkscape:zoom="0.86049458"
     inkscape:cx="323.95936"
     inkscape:cy="231.62555"
     inkscape:window-x="-8"
     inkscape:window-y="-8"
     inkscape:window-maximized="1"
     inkscape:current-layer="svg849" />
  <title
     id="title845">maple leaf from the flag of Canada</title>
  <path
     style="fill:#ffffff;fill-opacity:1"
     fill="#f00"
     d="m-90 2030 45-863a95 95 0 0 0-111-98l-859 151 116-320a65 65 0 0 0-20-73l-941-762 212-99a65 65 0 0 0 34-79l-186-572 542 115a65 65 0 0 0 73-38l105-247 423 454a65 65 0 0 0 111-57l-204-1052 327 189a65 65 0 0 0 91-27l332-652 332 652a65 65 0 0 0 91 27l327-189-204 1052a65 65 0 0 0 111 57l423-454 105 247a65 65 0 0 0 73 38l542-115-186 572a65 65 0 0 0 34 79l212 99-941 762a65 65 0 0 0-20 73l116 320-859-151a95 95 0 0 0-111 98l45 863z"
     id="path847" />
  <path
     sodipodi:nodetypes="sssssssssssssssssssssssssssssssssssssssssssssscsssssssssssccccs"
     style="opacity:1;fill:none;fill-opacity:1;stroke:#f6ffff;stroke-width:0;stroke-dasharray:0, 0;stroke-opacity:0;stroke-miterlimit:4;stroke-dashoffset:0"
     d="m 311.04933,647.7402 c 0.0104,-1.24289 1.64197,-33.05417 3.62562,-70.69175 2.54651,-48.3172 3.37314,-69.27756 2.81229,-71.3088 -1.00997,-3.65781 -5.24003,-8.50292 -8.67747,-9.93917 -1.46141,-0.61062 -4.2289,-1.11021 -6.14997,-1.11021 -1.92108,0 -34.14272,5.38504 -71.60366,11.96677 -37.46093,6.58174 -68.26159,11.81597 -68.44592,11.63164 -0.18432,-0.18432 3.95434,-12.13306 9.19703,-26.55274 9.96156,-27.39858 10.34633,-29.12982 7.45501,-33.54254 -0.85832,-1.30997 -143.794588,-117.82665 -152.328834,-124.17318 -0.855434,-0.63615 1.428887,-2.01893 9.387747,-5.68272 27.745252,-12.77228 28.997809,-13.65528 29.004453,-20.44686 0.0018,-1.84837 -6.109422,-21.90115 -14.85849,-48.75517 -8.17386,-25.08851 -14.716087,-45.76094 -14.538282,-45.93874 0.177803,-0.17781 19.452683,3.73499 42.833066,8.69511 23.38038,4.96012 44.1535,9.0184 46.16248,9.0184 6.2112,0 7.53935,-1.89675 17.15096,-24.49352 4.67278,-10.98566 8.76266,-19.98328 9.08862,-19.99472 0.32597,-0.0114 16.07625,16.60286 35.00062,36.92067 19.23745,20.65393 35.23768,37.16373 36.28982,37.44557 8.17395,2.18961 14.88662,-2.3982 14.81675,-10.12658 -0.0145,-1.59811 -7.30497,-40.37875 -16.20114,-86.17919 -8.89618,-45.80045 -16.00858,-83.439828 -15.80534,-83.643071 0.20324,-0.203243 12.20548,6.485241 26.67164,14.863298 24.64677,14.274143 26.56303,15.232823 30.4479,15.232823 3.20299,0 4.67406,-0.45353 6.46865,-1.9943 1.5542,-1.33437 11.16035,-19.410705 29.02955,-54.626202 C 312.57111,25.367475 324.77402,1.6831225 325,1.6831225 c 0.22598,0 12.42889,23.6843525 27.11757,52.6318955 17.8692,35.215497 27.47535,53.291832 29.02955,54.626202 1.80059,1.54591 3.26345,1.9943 6.50636,1.9943 3.93406,0 5.75025,-0.90769 30.45822,-15.222511 14.45109,-8.372386 26.43635,-15.060869 26.63392,-14.863298 0.19757,0.197571 -6.91947,37.832309 -15.81565,83.632759 -8.89617,45.80044 -16.18668,84.58108 -16.20114,86.17919 -0.0699,7.72397 6.64322,12.31629 14.80685,10.12917 1.03851,-0.27823 17.26063,-17.01172 36.43507,-37.58359 19.0097,-20.39514 34.76444,-37.01061 35.01051,-36.92326 0.24608,0.0873 4.2706,9.14708 8.94338,20.13274 9.61161,22.59677 10.93976,24.49352 17.15096,24.49352 2.00898,0 22.78209,-4.05828 46.16248,-9.0184 23.38038,-4.96012 42.65558,-8.87261 42.83377,-8.69442 0.17818,0.17819 -6.36405,20.85949 -14.53829,45.95845 -8.17424,25.09897 -14.86226,46.9644 -14.86226,48.58985 0,6.21 1.36324,7.39513 17.11845,14.88194 7.9853,3.79457 16.26315,7.72961 18.39523,8.74451 l 3.87652,1.84528 -76.07651,61.59458 c -41.84208,33.87702 -76.60672,62.4038 -77.25478,63.39286 -2.23482,3.41077 -2.47116,5.27018 2.28961,19.03486 1.32144,3.82063 3.02787,8.5585 5.18342,14.50136 5.23124,14.42253 9.36534,26.36878 9.18689,26.54722 -0.17844,0.17845 -30.98071,-5.05812 -68.44948,-11.63681 -37.46877,-6.57869 -69.6929,-11.96125 -71.60917,-11.96125 -1.91628,0 -4.67984,0.49959 -6.14125,1.11021 -3.43744,1.43625 -7.6675,6.28136 -8.67747,9.93917 -0.56085,2.03124 0.26578,22.9916 2.81229,71.3088 1.98365,37.63758 3.61517,69.44886 3.62562,70.69175 l 0.019,2.2598 H 325 311.03034 l 0.019,-2.2598 z"
     id="path857"
     transform="matrix(6.2,0,0,6.2,-2015,-2000)" />
</svg>
